<svg id='Dining_Room_24' width='24' height='24' viewBox='0 0 24 24' xmlns='http://www.w3.org/2000/svg' xmlns:xlink='http://www.w3.org/1999/xlink'><rect width='24' height='24' stroke='none' fill='#000000' opacity='0'/>


<g transform="matrix(0.42 0 0 0.42 12 12)" >
<g style="" >
<g transform="matrix(1 0 0 1 -16 12.5)" >
<polygon style="stroke: none; stroke-width: 1; stroke-dasharray: none; stroke-linecap: butt; stroke-dashoffset: 0; stroke-linejoin: miter; stroke-miterlimit: 4; fill: rgb(121,85,72); fill-rule: nonzero; opacity: 1;" points="-3,4.5 -1,4.5 3,-4.5 1,-4.5 " />
</g>
<g transform="matrix(1 0 0 1 -7 12.5)" >
<polygon style="stroke: none; stroke-width: 1; stroke-dasharray: none; stroke-linecap: butt; stroke-dashoffset: 0; stroke-linejoin: miter; stroke-miterlimit: 4; fill: rgb(121,85,72); fill-rule: nonzero; opacity: 1;" points="-3,-4.5 -1,-4.5 3,4.5 1,4.5 " />
</g>
<g transform="matrix(1 0 0 1 8.5 -2.5)" >
<path style="stroke: none; stroke-width: 1; stroke-dasharray: none; stroke-linecap: butt; stroke-dashoffset: 0; stroke-linejoin: miter; stroke-miterlimit: 4; fill: rgb(255,193,7); fill-rule: nonzero; opacity: 1;" transform=" translate(-32.5, -21.5)" d="M 19 20 L 46 20 L 46 23 L 19 23 L 19 20 z" stroke-linecap="round" />
</g>
<g transform="matrix(1 0 0 1 8.5 8)" >
<path style="stroke: none; stroke-width: 1; stroke-dasharray: none; stroke-linecap: butt; stroke-dashoffset: 0; stroke-linejoin: miter; stroke-miterlimit: 4; fill: rgb(255,152,0); fill-rule: nonzero; opacity: 1;" transform=" translate(-32.5, -32)" d="M 22 23 L 26 23 L 26 41 L 22 41 L 22 23 z M 39 23 L 43 23 L 43 41 L 39 41 L 39 23 z" stroke-linecap="round" />
</g>
<g transform="matrix(1 0 0 1 8.5 1.5)" >
<path style="stroke: none; stroke-width: 1; stroke-dasharray: none; stroke-linecap: butt; stroke-dashoffset: 0; stroke-linejoin: miter; stroke-miterlimit: 4; fill: rgb(245,124,0); fill-rule: nonzero; opacity: 1;" transform=" translate(-32.5, -25.5)" d="M 26 23 L 39 23 L 39 28 L 26 28 L 26 23 z" stroke-linecap="round" />
</g>
<g transform="matrix(1 0 0 1 -13.5 -1)" >
<path style="stroke: none; stroke-width: 1; stroke-dasharray: none; stroke-linecap: butt; stroke-dashoffset: 0; stroke-linejoin: miter; stroke-miterlimit: 4; fill: rgb(255,152,0); fill-rule: nonzero; opacity: 1;" transform=" translate(-10.5, -23)" d="M 15.24 29 L 10.76 29 C 9.277 29 8.001999999999999 27.9 7.792 26.432 L 6.309 16.416 C 6.018 14.453 4.33 13 2.342 13 L 2 13 L 3.824 27.006 C 4.313 30.423 7.294 33 10.76 33 L 19 33 C 19 30.791 17.455 29 15.24 29 z" stroke-linecap="round" />
</g>
<g transform="matrix(1 0 0 1 13 -8.5)" >
<path style="stroke: none; stroke-width: 1; stroke-dasharray: none; stroke-linecap: butt; stroke-dashoffset: 0; stroke-linejoin: miter; stroke-miterlimit: 4; fill: rgb(140,42,11); fill-rule: nonzero; opacity: 1;" transform=" translate(-37, -15.5)" d="M 41 15 C 41 12.478 38.666 10.501000000000001 36.041 11.112 C 34.623 11.441 33.468999999999994 12.583 33.123 13.997 C 32.705 15.706 33.39 17.272 34.601 18.181 C 34.84 18.36 35 18.625 35 18.924 L 35 20 L 39 20 L 39 18.903 C 39 18.616999999999997 39.153 18.363999999999997 39.382 18.192999999999998 C 40.36 17.466 41 16.313 41 15 z" stroke-linecap="round" />
</g>
<g transform="matrix(1 0 0 1 13 -13.5)" >
<rect style="stroke: none; stroke-width: 1; stroke-dasharray: none; stroke-linecap: butt; stroke-dashoffset: 0; stroke-linejoin: miter; stroke-miterlimit: 4; fill: rgb(140,42,11); fill-rule: nonzero; opacity: 1;" x="-2" y="-1.5" rx="0" ry="0" width="4" height="3" />
</g>
<g transform="matrix(1 0 0 1 13 -15)" >
<path style="stroke: none; stroke-width: 1; stroke-dasharray: none; stroke-linecap: butt; stroke-dashoffset: 0; stroke-linejoin: miter; stroke-miterlimit: 4; fill: rgb(109,30,9); fill-rule: nonzero; opacity: 1;" transform=" translate(-37, -9)" d="M 39 10 L 35 10 C 34.448 10 34 9.552 34 9 L 34 9 C 34 8.448 34.448 8 35 8 L 39 8 C 39.552 8 40 8.448 40 9 L 40 9 C 40 9.552 39.552 10 39 10 z" stroke-linecap="round" />
</g>
<g transform="matrix(1 0 0 1 6.5 -6)" >
<polygon style="stroke: none; stroke-width: 1; stroke-dasharray: none; stroke-linecap: butt; stroke-dashoffset: 0; stroke-linejoin: miter; stroke-miterlimit: 4; fill: rgb(144,202,249); fill-rule: nonzero; opacity: 1;" points="-7.5,-2 7.5,-2 4.5,2 -4.5,2 " />
</g>
<g transform="matrix(1 0 0 1 6.5 -5)" >
<polygon style="stroke: none; stroke-width: 1; stroke-dasharray: none; stroke-linecap: butt; stroke-dashoffset: 0; stroke-linejoin: miter; stroke-miterlimit: 4; fill: rgb(100,181,246); fill-rule: nonzero; opacity: 1;" points="-6,-1 6,-1 4.5,1 -4.5,1 " />
</g>
</g>
</g>
</svg>